# xmcd CD database file
#
# Track frame offsets:
#	150
#	19652
#	60747
#	75380
#	96525
#	113197
#	136837
#	180617
#	205937
#	227092
#	256882
#	279997
#	304800
#
# Disc length: 4372 seconds
#
# Revision: 0
# Processed by: cddbd v1.5.1PL0 Copyright (c) Steve Scherf et al.
# Submitted via: CDex 1.51
#
DISCID=ab11120d
DTITLE=Various Artist - Crossover Japan '04
DYEAR=2004
DGENRE=フュージョン (日本)
TTITLE0=Sea Line (RIE)
TTITLE1=Tsugaru (Keiko)
TTITLE2=Thunder Storm
TTITLE3=Nagisa-Moderato
TTITLE4=Sniper
TTITLE5=Agatha
TTITLE6=Rock'n Rocked Rock
TTITLE7=What You Won't Do For Love
TTITLE8=Love's In Need Of Love Today
TTITLE9=Morning Light
TTITLE10=Prism
TTITLE11=Round Trip
TTITLE12=Se.Le.Ne
EXTD=YEAR: 2004
EXTT0=
EXTT1=
EXTT2=
EXTT3=
EXTT4=
EXTT5=
EXTT6=
EXTT7=
EXTT8=
EXTT9=
EXTT10=
EXTT11=
EXTT12=
PLAYORDER=
